<mxfile host="app.diagrams.net" modified="2023-11-22T12:05:11.767Z" agent="Mozilla/5.0 (X11; Linux x86_64) AppleWebKit/537.36 (KHTML, like Gecko) Chrome/119.0.0.0 Safari/537.36" etag="I145wJdR48PXrk1MCmd1" version="22.1.3" type="github">
  <diagram name="Страница — 1" id="IHasmWcMiqbAbE_R60sP">
    <mxGraphModel dx="1434" dy="688" grid="1" gridSize="10" guides="1" tooltips="1" connect="1" arrows="1" fold="1" page="1" pageScale="1" pageWidth="827" pageHeight="1169" background="#ffffff" math="0" shadow="0">
      <root>
        <mxCell id="0" />
        <mxCell id="1" parent="0" />
        <mxCell id="ggoGIEasEx8B-Sip94aN-3" value="&lt;font style=&quot;font-size: 20px;&quot;&gt;Создание компании&lt;/font&gt;" style="text;html=1;strokeColor=none;fillColor=none;align=center;verticalAlign=middle;whiteSpace=wrap;rounded=0;" vertex="1" parent="1">
          <mxGeometry x="40" y="40" width="440" height="80" as="geometry" />
        </mxCell>
        <mxCell id="ggoGIEasEx8B-Sip94aN-4" value="&lt;font style=&quot;font-size: 20px;&quot;&gt;Удаление компании&lt;/font&gt;" style="text;html=1;strokeColor=none;fillColor=none;align=center;verticalAlign=middle;whiteSpace=wrap;rounded=0;" vertex="1" parent="1">
          <mxGeometry x="40" y="120" width="440" height="80" as="geometry" />
        </mxCell>
        <mxCell id="ggoGIEasEx8B-Sip94aN-5" value="&lt;font style=&quot;font-size: 20px;&quot;&gt;Запуск компании&lt;/font&gt;" style="text;html=1;strokeColor=none;fillColor=none;align=center;verticalAlign=middle;whiteSpace=wrap;rounded=0;" vertex="1" parent="1">
          <mxGeometry x="40" y="200" width="440" height="80" as="geometry" />
        </mxCell>
        <mxCell id="ggoGIEasEx8B-Sip94aN-6" value="&lt;font style=&quot;font-size: 20px;&quot;&gt;Пауза компании&lt;/font&gt;" style="text;html=1;strokeColor=none;fillColor=none;align=center;verticalAlign=middle;whiteSpace=wrap;rounded=0;" vertex="1" parent="1">
          <mxGeometry x="40" y="280" width="440" height="80" as="geometry" />
        </mxCell>
        <mxCell id="ggoGIEasEx8B-Sip94aN-7" value="&lt;font style=&quot;font-size: 20px;&quot;&gt;Завершение компании&lt;/font&gt;" style="text;html=1;strokeColor=none;fillColor=none;align=center;verticalAlign=middle;whiteSpace=wrap;rounded=0;" vertex="1" parent="1">
          <mxGeometry x="40" y="360" width="440" height="80" as="geometry" />
        </mxCell>
      </root>
    </mxGraphModel>
  </diagram>
</mxfile>
